<svg xmlns="http://www.w3.org/2000/svg" width="1440" height="900"><rect width="1440" height="900" fill="#f7f6f2"/><rect width="1440" height="76" fill="white"/><text x="70" y="48" font-family="Arial" font-size="24" font-weight="700">S  ShopStop</text><text x="90" y="145" font-family="Arial" font-size="11" fill="#888" letter-spacing="2">SECURE CHECKOUT</text><text x="90" y="205" font-family="Arial" font-size="46" font-weight="700">Complete your order</text><text x="90" y="240" font-family="Arial" font-size="14" fill="#777">Your payment details are represented by a safe demo flow.</text><rect x="90" y="285" width="760" height="500" rx="22" fill="white"/><text x="130" y="335" font-family="Arial" font-size="23" font-weight="700">Delivery details</text><text x="130" y="380" font-family="Arial" font-size="13" font-weight="700">Email</text><rect x="130" y="395" width="680" height="46" rx="9" fill="#faf9f6" stroke="#ddd"/><text x="150" y="424" font-family="Arial" font-size="13" fill="#555">demo@shopstop.dev</text><text x="130" y="475" font-family="Arial" font-size="13" font-weight="700">Delivery address</text><rect x="130" y="490" width="680" height="105" rx="9" fill="#faf9f6" stroke="#ddd"/><text x="150" y="525" font-family="Arial" font-size="13" fill="#555">221B Innovation Street, Bengaluru</text><rect x="130" y="625" width="680" height="50" rx="9" fill="#effbf3"/><text x="155" y="657" font-family="Arial" font-size="13" fill="#29734b">✓ Demo payment vault enabled — no real payment is processed.</text><rect x="130" y="705" width="680" height="48" rx="11" fill="#6d42ff"/><text x="345" y="735" font-family="Arial" font-size="14" font-weight="700" fill="white">Place secure order →</text><rect x="890" y="285" width="460" height="500" rx="22" fill="white"/><text x="930" y="335" font-family="Arial" font-size="12" fill="#888" letter-spacing="2">ORDER SUMMARY</text><text x="930" y="395" font-family="Arial" font-size="34" font-weight="700">$344.51</text><line x1="930" y1="425" x2="1310" y2="425" stroke="#eee"/><text x="930" y="470" font-family="Arial" font-size="13">🎧 Aurora Wireless × 1</text><text x="1260" y="470" font-family="Arial" font-size="13">$129.99</text><text x="930" y="515" font-family="Arial" font-size="13">⌚ Orbit Smart Watch × 1</text><text x="1260" y="515" font-family="Arial" font-size="13">$189.00</text></svg>